<svg xmlns="http://www.w3.org/2000/svg" width="1599.347" height="737.301" viewBox="0 0 1599.347 737.301">
  <g id="intro_background" transform="translate(0 26)">
    <path id="Path_104" data-name="Path 104" d="M1659.347,844.909H60V130.493H1659.347ZM62.962,842.582H1656.385V132.82H62.962Z" transform="translate(-60 -156.493)" fill="#3f3d56"/>
    <ellipse id="Ellipse_12" data-name="Ellipse 12" cx="13.5" cy="12.5" rx="13.5" ry="12.5" transform="translate(96 55)" fill="#6c63ff"/>
    <ellipse id="Ellipse_13" data-name="Ellipse 13" cx="13.5" cy="12.5" rx="13.5" ry="12.5" transform="translate(136 55)" fill="#f2f2f2"/>
    <circle id="Ellipse_14" data-name="Ellipse 14" cx="12.5" cy="12.5" r="12.5" transform="translate(177 55)" fill="#f2f2f2"/>
    <path id="Path_107" data-name="Path 107" d="M1131.2,642.708v98.9H1025.881a128.46,128.46,0,0,1,105.318-98.9Z" transform="translate(404.469 -97.181)" fill="#e6e6e6"/>
    <path id="Path_108" data-name="Path 108" d="M1087.615,313.963l-.948-1.14-354.507,294-1.14.948L976.653,903.944h3.85L735.2,608.154,1086.282,317l186.709,225.138v-4.65Z" transform="translate(262.678 -279.815)" fill="#e6e6e6"/>
    <ellipse id="Ellipse_15" data-name="Ellipse 15" cx="69.872" cy="69.872" rx="69.872" ry="69.872" transform="translate(1161.395 170.047)" fill="#fec"/>
    <path id="Path_111" data-name="Path 111" d="M896.265,491.73,857.383,604.462v.01l-18.739,54.353s-1.913,86.422-3.835,86.422c-.4,0-.966,1.245-1.6,3.208H647.012l14.943-158.777-.916-7.4L649.35,487.447A47.525,47.525,0,0,1,680.756,436.8l19.532-6.867a154.626,154.626,0,0,1,79.859-6.089h0A154.626,154.626,0,0,1,845.4,452.9Z" transform="translate(451.151 -104.391)" fill="#6c63ff"/>
    <path id="Path_113" data-name="Path 113" d="M833.69,308.128s-22.184-48.065-64.708-36.973-66.552,27.73-68.4,44.368.924,41.6.924,41.6,4.622-34.2,34.2-26.806,75.8,1.848,75.8,1.848l7.395,66.552s8.319-12.017,17.562-4.622S863.269,322.917,833.69,308.128Z" transform="translate(458.169 -124.503)" fill="#2f2e41"/>
    <path id="Path_114" data-name="Path 114" d="M908.73,658.246s0,43.883-16.129,81.949h-55.42l.488-1.285,15.362-67.224-5.758-23.042-13.917-52.431v-.01a153.272,153.272,0,0,1,1.23-83l.63-2.119a38.624,38.624,0,0,1,37.022-27.616h0s24.965,21.13,23.042,61.457Z" transform="translate(475.178 -96.131)" fill="#6c63ff"/>
    <path id="Path_123" data-name="Path 123" d="M1574.991,784.929H103V162.993H1574.991ZM105.726,782.9H1572.265V165.019H105.726Z" transform="translate(-39.322 -140.865)" fill="#ccc"/>
    <path id="Path_75" data-name="Path 75" d="M486.905,759.336a21.206,21.206,0,0,1,25.98-19.556l40.184-63.753L569.23,711.7,528.593,766.77a21.321,21.321,0,0,1-41.688-7.434Z" transform="translate(429.917 -70.601)" fill="#fec"/>
    <path id="Path_115" data-name="Path 115" d="M693.1,441.364l-2.217.392c-24.914,4.4-46.038,21.411-54.761,45.159q-.392,1.068-.753,2.149L620,558.2,514.372,759.862l32.654,19.2s90.267-105.632,101.79-142.123l46.4-89.231a28.917,28.917,0,0,0,3.24-14.453l-3.478-90.381a1.6,1.6,0,0,0-1.877-1.515Z" transform="translate(433.564 -101.718)" fill="#6c63ff"/>
  </g>
</svg>
